<svg width="45" height="32" viewBox="0 0 45 32" fill="none" xmlns="http://www.w3.org/2000/svg">
<g clip-path="url(#clip0_82_3167)">
<g clip-path="url(#clip1_82_3167)">
<path d="M31.8876 19.8999L28.7712 21.6262C26.8549 22.6869 24.6836 23.2487 22.4923 23.2487C20.3028 23.2487 18.1319 22.6873 16.2139 21.6262L12.3918 19.5088C12.4396 21.2829 12.3649 23.1679 11.6418 24.6718C11.4424 25.0824 11.0435 25.4539 11.0509 25.9476C11.0596 26.6324 11.8382 26.7479 12.3988 26.6437C12.3988 26.6437 15.7029 26.0101 20.2749 30.4909C20.729 30.9363 21.177 31.3552 21.7923 31.5729C22.9964 32 23.8915 31.2622 24.7188 30.4831C25.282 29.9534 25.9098 29.4937 26.5408 29.0466C28.0555 27.9763 29.9779 26.6306 31.9076 26.598C31.9076 26.598 34.397 27.1412 32.9487 24.833C32.9487 24.833 32.2852 22.6947 31.8876 19.8999Z" fill="black"/>
<path d="M7.28392 18.1792L6.55957 22.5244V28.3183H9.45654V22.5244L8.73219 18.1792V14.1702L7.28392 13.3677V18.1792Z" fill="black"/>
<path d="M41.3946 9.1037L27.3686 1.33485C24.333 -0.346318 20.6526 -0.346318 17.6187 1.33485L3.59059 9.1037C2.72241 9.58515 2.72241 10.8401 3.59059 11.3224L7.28404 13.3672V10.213H23.9411V11.6613H8.7323V14.1698L17.6183 19.0917C20.6521 20.772 24.3326 20.772 27.3681 19.0917L41.3941 11.3228C42.2645 10.8401 42.2645 9.58558 41.3946 9.1037Z" fill="black"/>
</g>
</g>
<defs>
<clipPath id="clip0_82_3167">
<rect width="43.5879" height="31.6244" fill="white" transform="translate(0.699219 0.0739746)"/>
</clipPath>
<clipPath id="clip1_82_3167">
<rect width="39.1075" height="31.6244" fill="white" transform="translate(2.93945 0.0739746)"/>
</clipPath>
</defs>
</svg>
